<?xml version="1.0" encoding="UTF-8" standalone="no"?>
<!-- Created with Inkscape (http://www.inkscape.org/) -->

<svg
   width="210mm"
   height="297mm"
   viewBox="0 0 210 297"
   version="1.1"
   id="svg5"
   xml:space="preserve"
   inkscape:version="1.2.1 (9c6d41e410, 2022-07-14)"
   sodipodi:docname="eiland.svg"
   xmlns:inkscape="http://www.inkscape.org/namespaces/inkscape"
   xmlns:sodipodi="http://sodipodi.sourceforge.net/DTD/sodipodi-0.dtd"
   xmlns="http://www.w3.org/2000/svg"
   xmlns:svg="http://www.w3.org/2000/svg"><sodipodi:namedview
     id="namedview7"
     pagecolor="#ffffff"
     bordercolor="#000000"
     borderopacity="0.25"
     inkscape:showpageshadow="2"
     inkscape:pageopacity="0.0"
     inkscape:pagecheckerboard="0"
     inkscape:deskcolor="#d1d1d1"
     inkscape:document-units="mm"
     showgrid="false"
     inkscape:zoom="0.75544332"
     inkscape:cx="317.03239"
     inkscape:cy="667.15793"
     inkscape:window-width="1920"
     inkscape:window-height="1046"
     inkscape:window-x="-11"
     inkscape:window-y="-11"
     inkscape:window-maximized="1"
     inkscape:current-layer="layer1" /><defs
     id="defs2" /><g
     inkscape:label="Laag 1"
     inkscape:groupmode="layer"
     id="layer1"><path
       d="m 190.1995,111.77503 c 4.46816,-2.43513 9.70931,-3.02252 14.60276,-1.64657 -8.00876,-7.60684 -19.36481,-9.45423 -25.90496,-7.3749 -1.48425,-10.660217 -9.2688,-19.356887 -19.68937,-22.024167 5.27223,5.07116 7.35157,12.67007 5.55048,16.70543 -5.89065,-3.76463 -12.79376,-5.62784 -19.77445,-5.34168 -6.98048,0.29376 -13.70608,2.72111 -19.26428,6.95734 8.34106,-0.15462 18.45249,2.535477 22.81181,7.150677 -11.20147,1.39146 -20.47857,12.97939 -22.3032,23.44705 8.38755,-6.87244 20.27672,-7.01927 32.03587,-3.03814 v -0.008 c -11.13953,11.47202 -19.50392,25.34889 -24.42863,40.55344 -10.86902,-2.84478 -22.05584,-4.24394 -33.27868,-4.18219 C 95.818147,141.12726 88.566942,119.68293 68.946452,95.810403 85.296266,91.574173 101.31281,92.872793 112.03498,102.98424 110.4889,88.637043 99.055579,71.962073 84.004581,68.993593 90.21208,63.110665 104.12694,60.505517 115.4052,61.386756 99.186792,47.069958 78.299155,47.603496 62.861061,55.581194 60.804694,50.00757 64.306653,40.066321 71.936508,33.503598 v 0.0076 c -7.011558,1.267823 -13.489581,4.59961 -18.607047,9.562518 -5.109749,4.962906 -8.634923,11.340603 -10.111446,18.313354 -8.665796,-3.447792 -24.181266,-2.125832 -35.7603295,7.606843 5.1948435,-0.8117 13.5358875,-0.96629 19.7435815,3.78026 -17.7412425,10.5674 -24.6364339,33.781347 -17.061062,51.222177 5.071159,-12.13674 11.51059,-19.00918 19.109511,-21.44432 -3.370414,13.35818 -2.968482,25.90495 7.019276,39.58769 0,-13.93802 1.391487,-32.9462 20.27672,-40.55344 8.843706,14.7033 16.674561,42.1762 16.674561,66.04875 -24.915466,6.18436 -40.553436,24.5355 -43.492234,39.26313 H 194.04548 c -7.75369,-12.01304 -22.35666,-24.76108 -42.00008,-33.45678 2.18004,-15.97102 8.5884,-32.74632 15.05891,-42.00008 13.51273,6.57085 13.51273,20.63294 12.85571,30.89797 8.0628,-9.55478 8.99827,-18.7541 7.19698,-28.76462 5.47309,2.18007 9.93353,7.60685 12.94853,16.75175 3.13076,-6.57083 3.84972,-14.02292 2.04073,-21.07227 -1.81665,-7.04244 -6.04521,-13.22677 -11.95131,-17.47843 z"
       id="path194"
       style="fill:#2f4a1e;fill-opacity:1;stroke-width:1.97899" /></g></svg>
