<?xml version="1.0" encoding="UTF-8" standalone="no"?>
<!-- Created with Inkscape (http://www.inkscape.org/) -->

<svg
   width="210mm"
   height="297mm"
   viewBox="0 0 210 297"
   version="1.1"
   id="svg3119"
   xml:space="preserve"
   inkscape:version="1.2.1 (9c6d41e410, 2022-07-14)"
   sodipodi:docname="onbekende_locatie.svg"
   xmlns:inkscape="http://www.inkscape.org/namespaces/inkscape"
   xmlns:sodipodi="http://sodipodi.sourceforge.net/DTD/sodipodi-0.dtd"
   xmlns="http://www.w3.org/2000/svg"
   xmlns:svg="http://www.w3.org/2000/svg"><sodipodi:namedview
     id="namedview3121"
     pagecolor="#ffffff"
     bordercolor="#000000"
     borderopacity="0.25"
     inkscape:showpageshadow="2"
     inkscape:pageopacity="0.0"
     inkscape:pagecheckerboard="0"
     inkscape:deskcolor="#d1d1d1"
     inkscape:document-units="mm"
     showgrid="false"
     inkscape:zoom="0.5341791"
     inkscape:cx="223.70774"
     inkscape:cy="595.30596"
     inkscape:window-width="1920"
     inkscape:window-height="1046"
     inkscape:window-x="-11"
     inkscape:window-y="-11"
     inkscape:window-maximized="1"
     inkscape:current-layer="layer1" /><defs
     id="defs3116" /><g
     inkscape:label="Laag 1"
     inkscape:groupmode="layer"
     id="layer1"><g
       stroke="none"
       stroke-width="1"
       fill="none"
       fill-rule="evenodd"
       id="g5851"
       style="fill:#36737e;fill-opacity:1"
       transform="matrix(1.8640204,0,0,1.8640204,13.517486,21.555227)"><g
         transform="translate(-6288,-3488)"
         fill="#000000"
         fill-rule="nonzero"
         id="g5849"
         style="fill:#36737e;fill-opacity:1"><path
           d="m 6338,3626 c -11.0457,0 -20,-1.3432 -20,-3 0,-1.6568 8.9543,-3 20,-3 11.0457,0 20,1.3432 20,3 0,1.6568 -8.9543,3 -20,3 z m -8,-25.75 c -1.9573,-5.7088 -5.5396,-10.7215 -10.3067,-14.4223 l -11.719,-9.0976 C 6295.9411,3567.3885 6288.6342,3553.2204 6288,3538 c 0,-27.6142 22.3858,-50 50,-50 27.6142,0 50,22.3858 50,50 -0.6342,15.2204 -7.9411,29.3885 -19.9743,38.7301 l -11.719,9.0976 c -4.7671,3.7008 -8.3494,8.7135 -10.3067,14.4223 l -1.3784,4.0203 c -0.97,2.8293 -3.6306,4.7297 -6.6216,4.7297 -2.991,0 -5.6516,-1.9004 -6.6216,-4.7297 z m -1.2258,-33.1734 c 0,4.2137 3.3879,7.0524 8.4465,7.0524 5.2443,0 8.5857,-2.8387 8.5857,-7.0524 0,-4.3024 -3.3878,-7.1411 -8.5857,-7.1411 -5.0586,0 -8.4465,2.8387 -8.4465,7.1411 z m -12.7593,-41.692 h 12.588 c 0.049,-4.8108 3.062,-8.5368 8.8942,-8.5368 4.4229,0 8.6026,2.1696 8.6026,7.3105 0,4.292 -2.9161,6.32 -7.4847,9.2914 -5.5893,3.6317 -9.0886,8.3009 -8.554,15.4699 l 0.097,2.4998 h 12.2478 v -2.3583 c 0,-5.1409 2.1871,-6.603 7.8735,-10.4705 4.7145,-3.16 9.7205,-6.8388 9.7205,-15.1398 0,-11.7439 -10.1093,-17.4508 -21.7252,-17.4508 -11.2758,0 -22.7459,5.3767 -22.2599,19.3846 z"
           id="path5847"
           style="fill:#36737e;fill-opacity:1" /></g></g></g></svg>
