<?xml version="1.0" encoding="UTF-8" standalone="no"?>
<!-- Created with Inkscape (http://www.inkscape.org/) -->

<svg
   width="210mm"
   height="297mm"
   viewBox="0 0 210 297"
   version="1.1"
   id="svg13041"
   xml:space="preserve"
   inkscape:version="1.2.1 (9c6d41e410, 2022-07-14)"
   sodipodi:docname="ruïne.svg"
   xmlns:inkscape="http://www.inkscape.org/namespaces/inkscape"
   xmlns:sodipodi="http://sodipodi.sourceforge.net/DTD/sodipodi-0.dtd"
   xmlns="http://www.w3.org/2000/svg"
   xmlns:svg="http://www.w3.org/2000/svg"><sodipodi:namedview
     id="namedview13043"
     pagecolor="#ffffff"
     bordercolor="#000000"
     borderopacity="0.25"
     inkscape:showpageshadow="2"
     inkscape:pageopacity="0.0"
     inkscape:pagecheckerboard="0"
     inkscape:deskcolor="#d1d1d1"
     inkscape:document-units="mm"
     showgrid="false"
     inkscape:zoom="0.37772166"
     inkscape:cx="234.29951"
     inkscape:cy="439.47705"
     inkscape:window-width="1920"
     inkscape:window-height="1046"
     inkscape:window-x="-11"
     inkscape:window-y="-11"
     inkscape:window-maximized="1"
     inkscape:current-layer="layer1" /><defs
     id="defs13038" /><g
     inkscape:label="Laag 1"
     inkscape:groupmode="layer"
     id="layer1"><g
       id="g14375"
       style="fill:#6d6744;fill-opacity:1;stroke:#46432c;stroke-opacity:1"><path
         d="m 57.535696,124.45933 -6.404207,7.98063 -3.724292,13.43898 c -0.07882,0.31528 -0.275874,0.59115 -0.532042,0.78821 l -7.09389,5.30071 c -0.256168,0.19705 -0.571452,0.29558 -0.886736,0.29558 -0.01971,0 -0.03941,0 -0.07882,0 l -0.886736,18.91704 h 21.813712 l -2.206988,-46.70144 z"
         id="path13563"
         style="stroke-width:1.97053;fill:#6d6744;fill-opacity:1;stroke:#46432c;stroke-opacity:1" /><path
         d="m 44.687872,144.5981 3.665177,-13.24193 c 0.05912,-0.19706 0.137937,-0.3744 0.275874,-0.53204 l 7.645636,-9.51764 c 0.275874,-0.33499 0.669979,-0.51234 1.083789,-0.53204 L 56.767191,108.10397 H 40.904464 l -1.931114,40.77016 5.714522,-4.25633 z"
         id="path13565"
         style="stroke-width:1.97053;fill:#6d6744;fill-opacity:1;stroke:#46432c;stroke-opacity:1" /><path
         d="m 95.409186,161.28844 c -0.197053,0 -0.394105,-0.0394 -0.571452,-0.11823 l -12.690181,-5.39924 c -0.236463,-0.0985 -0.453221,-0.27587 -0.610863,-0.47292 l -6.246564,-8.41415 -1.142905,24.27687 h 21.813712 l -0.472926,-9.89203 c 0,0 -0.03941,0 -0.07882,0 z"
         id="path13567"
         style="stroke-width:1.97053;fill:#6d6744;fill-opacity:1;stroke:#46432c;stroke-opacity:1" /><path
         d="m 77.103009,108.10397 -1.655241,34.99653 c 0.433515,0.0197 0.847325,0.19705 1.123199,0.57145 l 7.09389,9.53734 11.665508,4.94602 -2.36463,-50.05134 z"
         id="path13569"
         style="stroke-width:1.97053;fill:#6d6744;fill-opacity:1;stroke:#46432c;stroke-opacity:1" /><polygon
         points="68.64,70.57 67.4,44.19 58.94,41.75 57.57,70.57 "
         id="polygon13571"
         transform="matrix(1.970525,0,0,1.970525,10.440148,32.100823)"
         style="fill:#6d6744;fill-opacity:1;stroke:#46432c;stroke-opacity:1" /><polygon
         points="86.05,70.57 85.64,61.85 75.6,57.54 74.98,70.57 "
         id="polygon13573"
         transform="matrix(1.970525,0,0,1.970525,10.440148,32.100823)"
         style="fill:#6d6744;fill-opacity:1;stroke:#46432c;stroke-opacity:1" /><path
         d="m 30.145398,190.86602 h 29.065244 l 2.482861,-6.73919 c 0.118232,-0.29558 0.315284,-0.55175 0.591158,-0.7291 l 14.404538,-9.28117 H 30.145398 Z"
         id="path13575"
         style="stroke-width:1.97053;fill:#6d6744;fill-opacity:1;stroke:#46432c;stroke-opacity:1" /><path
         d="M 96.079165,174.11656 H 80.847006 c 0,0.49263 -0.216757,0.96556 -0.650273,1.24143 l -15.902137,10.24673 -1.931114,5.2613 h 57.086108 l 18.44411,-9.34029 -4.33515,-6.60126 c -0.15764,-0.25616 -0.21676,-0.53204 -0.21676,-0.80791 H 96.09887 Z"
         id="path13577"
         style="stroke-width:1.97053;fill:#6d6744;fill-opacity:1;stroke:#46432c;stroke-opacity:1" /><path
         d="m 145.83492,174.11656 h -9.28117 l 4.70955,7.17271 c 0.23647,0.3547 0.29558,0.78821 0.19706,1.18232 -0.0985,0.41381 -0.39411,0.7488 -0.76851,0.94585 l -14.70012,7.44858 h 61.79567 v -16.74946 z"
         id="path13579"
         style="stroke-width:1.97053;fill:#6d6744;fill-opacity:1;stroke:#46432c;stroke-opacity:1" /><polygon
         points="51.79,28.57 10,28.57 10,37.07 15.53,37.07 23.43,37.07 33.91,37.07 41.81,37.07 54.02,37.07 51.79,29.03 "
         id="polygon13581"
         transform="matrix(1.970525,0,0,1.970525,10.440148,32.100823)"
         style="fill:#6d6744;fill-opacity:1;stroke:#46432c;stroke-opacity:1" /><polygon
         points="49.7,11.52 43.46,12.07 39.46,7.93 5,27.07 10,27.07 51.79,27.07 51.79,18.43 "
         id="polygon13583"
         transform="matrix(1.970525,0,0,1.970525,10.440148,32.100823)"
         style="fill:#6d6744;fill-opacity:1;stroke:#46432c;stroke-opacity:1" /><path
         d="m 129.79485,202.49212 -13.59663,-7.36976 c -0.47292,-0.25617 -0.7685,-0.7488 -0.7685,-1.30055 H 61.279693 l -0.197052,0.51234 c -0.137937,0.3941 -0.453221,0.70939 -0.847326,0.86703 l -15.547443,6.06921 -3.172545,12.27637 h 85.698133 c 0,-0.11823 0,-0.23646 0,-0.33498 l 2.54198,-10.68025 z"
         id="path13585"
         style="stroke-width:1.97053;fill:#6d6744;fill-opacity:1;stroke:#46432c;stroke-opacity:1" /><path
         d="m 42.007958,199.7925 c 0.118232,-0.45322 0.453221,-0.82762 0.886737,-1.00497 l 12.729591,-4.96572 H 20.292773 v 19.70525 h 18.247061 c 0,-0.11823 0,-0.23646 0.01971,-0.3744 l 3.448418,-13.37986 z"
         id="path13587"
         style="stroke-width:1.97053;fill:#6d6744;fill-opacity:1;stroke:#46432c;stroke-opacity:1" /><path
         d="m 130.18895,213.52706 h 67.45107 v -19.70525 h -77.48104 l -0.0788,0.0394 12.11873,6.58155 c 0.59116,0.31529 0.88673,0.98527 0.72909,1.63554 z"
         id="path13589"
         style="stroke-width:1.97053;fill:#6d6744;fill-opacity:1;stroke:#46432c;stroke-opacity:1" /></g></g></svg>
