<?xml version="1.0" encoding="UTF-8" standalone="no"?>
<!-- Created with Inkscape (http://www.inkscape.org/) -->

<svg
   width="210mm"
   height="297mm"
   viewBox="0 0 210 297"
   version="1.1"
   id="svg7700"
   xml:space="preserve"
   inkscape:version="1.2.1 (9c6d41e410, 2022-07-14)"
   sodipodi:docname="tempel.svg"
   xmlns:inkscape="http://www.inkscape.org/namespaces/inkscape"
   xmlns:sodipodi="http://sodipodi.sourceforge.net/DTD/sodipodi-0.dtd"
   xmlns="http://www.w3.org/2000/svg"
   xmlns:svg="http://www.w3.org/2000/svg"><sodipodi:namedview
     id="namedview7702"
     pagecolor="#ffffff"
     bordercolor="#000000"
     borderopacity="0.25"
     inkscape:showpageshadow="2"
     inkscape:pageopacity="0.0"
     inkscape:pagecheckerboard="0"
     inkscape:deskcolor="#d1d1d1"
     inkscape:document-units="mm"
     showgrid="false"
     inkscape:zoom="0.5341791"
     inkscape:cx="307.94915"
     inkscape:cy="668.31518"
     inkscape:window-width="1920"
     inkscape:window-height="1046"
     inkscape:window-x="-11"
     inkscape:window-y="-11"
     inkscape:window-maximized="1"
     inkscape:current-layer="layer1" /><defs
     id="defs7697" /><g
     inkscape:label="Laag 1"
     inkscape:groupmode="layer"
     id="layer1"><rect
       x="-24.763828"
       fill="none"
       width="253.00073"
       height="253.00073"
       id="rect8202"
       y="12.95581"
       style="stroke-width:2.53001" /><rect
       x="-225.71642"
       fill="none"
       width="274.82394"
       height="274.82394"
       id="rect10428"
       y="-2.6408796"
       style="stroke-width:2.74824" /><path
       d="m 167.23116,136.3952 v -9.19114 h 14.67067 v -12.7245 h 17.67414 v -7.07162 L 104.12874,58.622118 8.6815007,107.40794 v 7.07162 H 26.355644 v 12.7245 h 14.670674 v 9.19114 h 3.357543 v 58.33104 h -3.357543 v 9.19115 h -15.20055 v 10.25334 h -6.099761 v 15.55218 H 188.52658 v -15.55218 h -6.09976 v -10.25334 h -15.20054 v -9.19115 h -3.35756 V 136.3952 Z m -63.10242,-9.19114 h 7.60149 v 9.19114 h 3.35755 v 58.33104 h -3.35755 v 9.19115 H 96.527241 v -9.19115 H 93.169693 V 136.3952 h 3.357548 v -9.19114 z M 57.818955,194.72624 V 136.3952 h 3.357552 v -9.19114 h 15.202984 v 9.19114 h 3.357551 v 58.33104 h -3.357551 v 9.19115 H 61.176507 v -9.19115 z m 92.619565,0 h -3.35755 v 9.19115 h -15.20055 v -9.19115 h -3.36243 V 136.3952 h 3.36243 v -9.19114 h 15.20055 v 9.19114 h 3.35755 z"
       id="path10430"
       style="fill:#5e593b;fill-opacity:1;stroke:#353221;stroke-width:2.44186;stroke-opacity:1" /></g></svg>
